ply
format ascii 1.0
element vertex 98
property float x
property float y
property float z
element face 192
property list uchar int vertex_indices
end_header
1.0 0.0 -1.0
0.9914448613738104 0.13052619222005157 -1.0
0.9659258262890683 0.25881904510252074 -1.0
0.9238795325112867 0.3826834323650898 -1.0
0.8660254037844387 0.49999999999999994 -1.0
0.7933533402912352 0.6087614290087207 -1.0
0.7071067811865476 0.7071067811865476 -1.0
0.6087614290087207 0.7933533402912352 -1.0
0.5000000000000001 0.8660254037844386 -1.0
0.38268343236508984 0.9238795325112867 -1.0
0.25881904510252074 0.9659258262890683 -1.0
0.1305261922200517 0.9914448613738104 -1.0
6.123233995736766e-17 1.0 -1.0
-0.1305261922200516 0.9914448613738104 -1.0
-0.25881904510252063 0.9659258262890683 -1.0
-0.3826834323650895 0.9238795325112868 -1.0
-0.4999999999999998 0.8660254037844387 -1.0
-0.6087614290087207 0.7933533402912352 -1.0
-0.7071067811865475 0.7071067811865476 -1.0
-0.793353340291235 0.6087614290087209 -1.0
-0.8660254037844387 0.49999999999999994 -1.0
-0.9238795325112867 0.3826834323650899 -1.0
-0.9659258262890682 0.258819045102521 -1.0
-0.9914448613738104 0.130526192220052 -1.0
-1.0 1.2246467991473532e-16 -1.0
-0.9914448613738104 -0.13052619222005177 -1.0
-0.9659258262890683 -0.2588190451025208 -1.0
-0.9238795325112868 -0.38268343236508967 -1.0
-0.8660254037844388 -0.4999999999999997 -1.0
-0.7933533402912352 -0.6087614290087207 -1.0
-0.7071067811865479 -0.7071067811865471 -1.0
-0.6087614290087209 -0.7933533402912349 -1.0
-0.5000000000000004 -0.8660254037844385 -1.0
-0.3826834323650895 -0.9238795325112868 -1.0
-0.25881904510252063 -0.9659258262890683 -1.0
-0.13052619222005163 -0.9914448613738104 -1.0
-1.8369701987210297e-16 -1.0 -1.0
0.13052619222005127 -0.9914448613738105 -1.0
0.2588190451025203 -0.9659258262890684 -1.0
0.38268343236508917 -0.923879532511287 -1.0
0.5000000000000001 -0.8660254037844386 -1.0
0.6087614290087199 -0.7933533402912357 -1.0
0.7071067811865474 -0.7071067811865477 -1.0
0.7933533402912349 -0.608761429008721 -1.0
0.8660254037844384 -0.5000000000000004 -1.0
0.9238795325112868 -0.38268343236508956 -1.0
0.9659258262890681 -0.25881904510252157 -1.0
0.9914448613738104 -0.13052619222005168 -1.0
1.0 0.0 1.0
0.9914448613738104 0.13052619222005157 1.0
0.9659258262890683 0.25881904510252074 1.0
0.9238795325112867 0.3826834323650898 1.0
0.8660254037844387 0.49999999999999994 1.0
0.7933533402912352 0.6087614290087207 1.0
0.7071067811865476 0.7071067811865476 1.0
0.6087614290087207 0.7933533402912352 1.0
0.5000000000000001 0.8660254037844386 1.0
0.38268343236508984 0.9238795325112867 1.0
0.25881904510252074 0.9659258262890683 1.0
0.1305261922200517 0.9914448613738104 1.0
6.123233995736766e-17 1.0 1.0
-0.1305261922200516 0.9914448613738104 1.0
-0.25881904510252063 0.9659258262890683 1.0
-0.3826834323650895 0.9238795325112868 1.0
-0.4999999999999998 0.8660254037844387 1.0
-0.6087614290087207 0.7933533402912352 1.0
-0.7071067811865475 0.7071067811865476 1.0
-0.793353340291235 0.6087614290087209 1.0
-0.8660254037844387 0.49999999999999994 1.0
-0.9238795325112867 0.3826834323650899 1.0
-0.9659258262890682 0.258819045102521 1.0
-0.9914448613738104 0.130526192220052 1.0
-1.0 1.2246467991473532e-16 1.0
-0.9914448613738104 -0.13052619222005177 1.0
-0.9659258262890683 -0.2588190451025208 1.0
-0.9238795325112868 -0.38268343236508967 1.0
-0.8660254037844388 -0.4999999999999997 1.0
-0.7933533402912352 -0.6087614290087207 1.0
-0.7071067811865479 -0.7071067811865471 1.0
-0.6087614290087209 -0.7933533402912349 1.0
-0.5000000000000004 -0.8660254037844385 1.0
-0.3826834323650895 -0.9238795325112868 1.0
-0.25881904510252063 -0.9659258262890683 1.0
-0.13052619222005163 -0.9914448613738104 1.0
-1.8369701987210297e-16 -1.0 1.0
0.13052619222005127 -0.9914448613738105 1.0
0.2588190451025203 -0.9659258262890684 1.0
0.38268343236508917 -0.923879532511287 1.0
0.5000000000000001 -0.8660254037844386 1.0
0.6087614290087199 -0.7933533402912357 1.0
0.7071067811865474 -0.7071067811865477 1.0
0.7933533402912349 -0.608761429008721 1.0
0.8660254037844384 -0.5000000000000004 1.0
0.9238795325112868 -0.38268343236508956 1.0
0.9659258262890681 -0.25881904510252157 1.0
0.9914448613738104 -0.13052619222005168 1.0
0.0 0.0 -1.0
0.0 0.0 1.0
3 0 1 49
3 0 49 48
3 1 2 50
3 1 50 49
3 2 3 51
3 2 51 50
3 3 4 52
3 3 52 51
3 4 5 53
3 4 53 52
3 5 6 54
3 5 54 53
3 6 7 55
3 6 55 54
3 7 8 56
3 7 56 55
3 8 9 57
3 8 57 56
3 9 10 58
3 9 58 57
3 10 11 59
3 10 59 58
3 11 12 60
3 11 60 59
3 12 13 61
3 12 61 60
3 13 14 62
3 13 62 61
3 14 15 63
3 14 63 62
3 15 16 64
3 15 64 63
3 16 17 65
3 16 65 64
3 17 18 66
3 17 66 65
3 18 19 67
3 18 67 66
3 19 20 68
3 19 68 67
3 20 21 69
3 20 69 68
3 21 22 70
3 21 70 69
3 22 23 71
3 22 71 70
3 23 24 72
3 23 72 71
3 24 25 73
3 24 73 72
3 25 26 74
3 25 74 73
3 26 27 75
3 26 75 74
3 27 28 76
3 27 76 75
3 28 29 77
3 28 77 76
3 29 30 78
3 29 78 77
3 30 31 79
3 30 79 78
3 31 32 80
3 31 80 79
3 32 33 81
3 32 81 80
3 33 34 82
3 33 82 81
3 34 35 83
3 34 83 82
3 35 36 84
3 35 84 83
3 36 37 85
3 36 85 84
3 37 38 86
3 37 86 85
3 38 39 87
3 38 87 86
3 39 40 88
3 39 88 87
3 40 41 89
3 40 89 88
3 41 42 90
3 41 90 89
3 42 43 91
3 42 91 90
3 43 44 92
3 43 92 91
3 44 45 93
3 44 93 92
3 45 46 94
3 45 94 93
3 46 47 95
3 46 95 94
3 47 0 48
3 47 48 95
3 96 1 0
3 96 2 1
3 96 3 2
3 96 4 3
3 96 5 4
3 96 6 5
3 96 7 6
3 96 8 7
3 96 9 8
3 96 10 9
3 96 11 10
3 96 12 11
3 96 13 12
3 96 14 13
3 96 15 14
3 96 16 15
3 96 17 16
3 96 18 17
3 96 19 18
3 96 20 19
3 96 21 20
3 96 22 21
3 96 23 22
3 96 24 23
3 96 25 24
3 96 26 25
3 96 27 26
3 96 28 27
3 96 29 28
3 96 30 29
3 96 31 30
3 96 32 31
3 96 33 32
3 96 34 33
3 96 35 34
3 96 36 35
3 96 37 36
3 96 38 37
3 96 39 38
3 96 40 39
3 96 41 40
3 96 42 41
3 96 43 42
3 96 44 43
3 96 45 44
3 96 46 45
3 96 47 46
3 96 0 47
3 97 48 49
3 97 49 50
3 97 50 51
3 97 51 52
3 97 52 53
3 97 53 54
3 97 54 55
3 97 55 56
3 97 56 57
3 97 57 58
3 97 58 59
3 97 59 60
3 97 60 61
3 97 61 62
3 97 62 63
3 97 63 64
3 97 64 65
3 97 65 66
3 97 66 67
3 97 67 68
3 97 68 69
3 97 69 70
3 97 70 71
3 97 71 72
3 97 72 73
3 97 73 74
3 97 74 75
3 97 75 76
3 97 76 77
3 97 77 78
3 97 78 79
3 97 79 80
3 97 80 81
3 97 81 82
3 97 82 83
3 97 83 84
3 97 84 85
3 97 85 86
3 97 86 87
3 97 87 88
3 97 88 89
3 97 89 90
3 97 90 91
3 97 91 92
3 97 92 93
3 97 93 94
3 97 94 95
3 97 95 48
